<svg width="32" height="32" viewBox="0 0 32 32" fill="none" xmlns="http://www.w3.org/2000/svg">
<g id="icon_32_camera_fill">
<path id="Subtract" fill-rule="evenodd" clip-rule="evenodd" d="M9 10H10.5858C10.851 10 11.1054 9.89464 11.2929 9.70711L12.7071 8.29289C12.8946 8.10536 13.149 8 13.4142 8H18.5858C18.851 8 19.1054 8.10536 19.2929 8.29289L20.7071 9.70711C20.8946 9.89464 21.149 10 21.4142 10H23C24.6569 10 26 11.3431 26 13V21C26 22.6569 24.6569 24 23 24H9C7.34315 24 6 22.6569 6 21V13C6 11.3431 7.34315 10 9 10ZM16 20C17.6569 20 19 18.6569 19 17C19 15.3431 17.6569 14 16 14C14.3431 14 13 15.3431 13 17C13 18.6569 14.3431 20 16 20Z" fill="#121212"/>
</g>
</svg>
