<svg width="24" height="24" viewBox="0 0 24 24" fill="none" xmlns="http://www.w3.org/2000/svg">
<path d="M6.5 12.8992V10C6.5 6.96243 8.96243 4.5 12 4.5C15.0376 4.5 17.5 6.96243 17.5 10V12.8992C17.5 13.0294 17.5248 13.1584 17.5732 13.2793L18.0374 13.0936L17.5732 13.2793L18.9872 16.8143C19.1186 17.1427 18.8767 17.5 18.523 17.5H5.47703C5.1233 17.5 4.88142 17.1427 5.01279 16.8143L6.4268 13.2793L5.96777 13.0957L6.4268 13.2793C6.47515 13.1584 6.5 13.0294 6.5 12.8992Z" stroke="#121212"/>
<mask id="path-2-inside-1_2151_19700" fill="white">
<path d="M15 17C15 17.7956 14.6839 18.5587 14.1213 19.1213C13.5587 19.6839 12.7956 20 12 20C11.2044 20 10.4413 19.6839 9.87868 19.1213C9.31607 18.5587 9 17.7956 9 17L12 17H15Z"/>
</mask>
<path d="M15 17C15 17.7956 14.6839 18.5587 14.1213 19.1213C13.5587 19.6839 12.7956 20 12 20C11.2044 20 10.4413 19.6839 9.87868 19.1213C9.31607 18.5587 9 17.7956 9 17L12 17H15Z" stroke="#121212" stroke-width="2" mask="url(#path-2-inside-1_2151_19700)"/>
</svg>
