<svg width="24" height="24" viewBox="0 0 24 24" fill="none" xmlns="http://www.w3.org/2000/svg">
<mask id="path-1-inside-1_2151_19714" fill="white">
<path d="M18 12C18 13.1867 17.6481 14.3467 16.9888 15.3334C16.3295 16.3201 15.3925 17.0892 14.2961 17.5433C13.1997 17.9974 11.9933 18.1162 10.8295 17.8847C9.66557 17.6532 8.59647 17.0818 7.75736 16.2426C6.91824 15.4035 6.3468 14.3344 6.11529 13.1705C5.88378 12.0067 6.0026 10.8003 6.45672 9.7039C6.91085 8.60754 7.67988 7.67047 8.66658 7.01118C9.65327 6.35189 10.8133 6 12 6V12H18Z"/>
</mask>
<path d="M18 12C18 13.1867 17.6481 14.3467 16.9888 15.3334C16.3295 16.3201 15.3925 17.0892 14.2961 17.5433C13.1997 17.9974 11.9933 18.1162 10.8295 17.8847C9.66557 17.6532 8.59647 17.0818 7.75736 16.2426C6.91824 15.4035 6.3468 14.3344 6.11529 13.1705C5.88378 12.0067 6.0026 10.8003 6.45672 9.7039C6.91085 8.60754 7.67988 7.67047 8.66658 7.01118C9.65327 6.35189 10.8133 6 12 6V12H18Z" stroke="#121212" stroke-width="2" mask="url(#path-1-inside-1_2151_19714)"/>
<circle cx="12" cy="12" r="5" fill="white"/>
<path d="M17.5 12V10" stroke="#121212" stroke-linecap="round"/>
<path d="M15.5 11L17.5 9L19.5 11" stroke="#121212" stroke-linecap="round" stroke-linejoin="round"/>
</svg>
