<svg width="24" height="24" viewBox="0 0 24 24" fill="none" xmlns="http://www.w3.org/2000/svg">
<circle cx="12" cy="12" r="4.5" stroke="#121212"/>
<path d="M11.5 9.55051C11.2374 9.60412 10.984 9.69983 10.75 9.83494C10.37 10.0544 10.0544 10.37 9.83494 10.75C9.61552 11.13 9.50001 11.5612 9.50001 12C9.50001 12.4388 9.61552 12.87 9.83494 13.25C10.0544 13.63 10.37 13.9456 10.75 14.1651C11.1301 14.3845 11.5612 14.5 12 14.5C12.4388 14.5 12.87 14.3845 13.25 14.1651C13.484 14.03 13.6936 13.8584 13.8713 13.6578L13.25 13.299C12.1671 12.6738 11.5 11.5184 11.5 10.2679V9.55051Z" stroke="#121212"/>
<path d="M12 4.5V5.5" stroke="#121212" stroke-linecap="round"/>
<path d="M12 18.5V19.5" stroke="#121212" stroke-linecap="round"/>
<path d="M7 17L6 18" stroke="#121212" stroke-linecap="round"/>
<path d="M17 17L18 18" stroke="#121212" stroke-linecap="round"/>
<path d="M6 6L7 7" stroke="#121212" stroke-linecap="round"/>
<path d="M17 7L18 6" stroke="#121212" stroke-linecap="round"/>
<path d="M19.5 12H18.5" stroke="#121212" stroke-linecap="round"/>
<path d="M5.5 12H4.5" stroke="#121212" stroke-linecap="round"/>
</svg>
