<svg width="25" height="24" viewBox="0 0 25 24" fill="none" xmlns="http://www.w3.org/2000/svg">
<g id="icon_24_refresh">
<rect width="24" height="24" transform="translate(0.5)" fill="white"/>
<g id="Ellipse 278">
<mask id="path-1-inside-1_3237_3451" fill="white">
<path d="M18.5 12C18.5 13.1867 18.1481 14.3467 17.4888 15.3334C16.8295 16.3201 15.8925 17.0892 14.7961 17.5433C13.6997 17.9974 12.4933 18.1162 11.3295 17.8847C10.1656 17.6532 9.09647 17.0818 8.25736 16.2426C7.41824 15.4035 6.8468 14.3344 6.61529 13.1705C6.38378 12.0067 6.5026 10.8003 6.95672 9.7039C7.41085 8.60754 8.17988 7.67047 9.16658 7.01118C10.1533 6.35189 11.3133 6 12.5 6V12H18.5Z"/>
</mask>
<path d="M18.5 12C18.5 13.1867 18.1481 14.3467 17.4888 15.3334C16.8295 16.3201 15.8925 17.0892 14.7961 17.5433C13.6997 17.9974 12.4933 18.1162 11.3295 17.8847C10.1656 17.6532 9.09647 17.0818 8.25736 16.2426C7.41824 15.4035 6.8468 14.3344 6.61529 13.1705C6.38378 12.0067 6.5026 10.8003 6.95672 9.7039C7.41085 8.60754 8.17988 7.67047 9.16658 7.01118C10.1533 6.35189 11.3133 6 12.5 6V12H18.5Z" stroke="#262524" stroke-width="2" mask="url(#path-1-inside-1_3237_3451)"/>
</g>
<circle id="Ellipse 279" cx="12.5" cy="12" r="5" fill="white"/>
<path id="Vector 309" d="M18 12V10" stroke="#262524" stroke-linecap="round"/>
<path id="Vector 310" d="M16 11L18 9L20 11" stroke="#262524" stroke-linecap="round" stroke-linejoin="round"/>
</g>
</svg>
