<svg width="24" height="24" viewBox="0 0 24 24" fill="none" xmlns="http://www.w3.org/2000/svg">
<path d="M17.5 8.5C18.6046 8.5 19.5 7.60457 19.5 6.5C19.5 5.39543 18.6046 4.5 17.5 4.5C16.3954 4.5 15.5 5.39543 15.5 6.5C15.5 7.60457 16.3954 8.5 17.5 8.5Z" stroke="#121212"/>
<path d="M15 19.5C16.1046 19.5 17 18.6046 17 17.5C17 16.3954 16.1046 15.5 15 15.5C13.8954 15.5 13 16.3954 13 17.5C13 18.6046 13.8954 19.5 15 19.5Z" stroke="#121212"/>
<path d="M6.5 14C7.60457 14 8.5 13.1046 8.5 12C8.5 10.8954 7.60457 10 6.5 10C5.39543 10 4.5 10.8954 4.5 12C4.5 13.1046 5.39543 14 6.5 14Z" stroke="#121212"/>
<path d="M16 7L8 11.5" stroke="#121212"/>
<path d="M13 16.5L8 13" stroke="#121212"/>
</svg>
