<svg width="24" height="25" viewBox="0 0 24 25" fill="none" xmlns="http://www.w3.org/2000/svg">
<g id="icon_24_trash">
<path id="Rectangle 4800" d="M6.5 10.5C6.5 9.67157 7.17157 9 8 9H16C16.8284 9 17.5 9.67157 17.5 10.5V18.5C17.5 19.3284 16.8284 20 16 20H8C7.17157 20 6.5 19.3284 6.5 18.5V10.5Z" stroke="#121212"/>
<path id="Vector 341" d="M9.5 11.5V17.5" stroke="#121212" stroke-linecap="round" stroke-linejoin="round"/>
<path id="Vector 342" d="M12 11.5V17.5" stroke="#121212" stroke-linecap="round" stroke-linejoin="round"/>
<path id="Vector 343" d="M14.5 11.5V17.5" stroke="#121212" stroke-linecap="round" stroke-linejoin="round"/>
<g id="Union">
<mask id="path-5-inside-1_2208_4729" fill="white">
<path fill-rule="evenodd" clip-rule="evenodd" d="M8.5 4.5C7.67157 4.5 7 5.17157 7 6V6.5H4.5C4.22386 6.5 4 6.72386 4 7C4 7.27614 4.22386 7.5 4.5 7.5H7H17H19.5C19.7761 7.5 20 7.27614 20 7C20 6.72386 19.7761 6.5 19.5 6.5H17V6C17 5.17157 16.3284 4.5 15.5 4.5H8.5Z"/>
</mask>
<path d="M7 6.5V7.5H8V6.5H7ZM17 6.5H16V7.5H17V6.5ZM8 6C8 5.72386 8.22386 5.5 8.5 5.5V3.5C7.11929 3.5 6 4.61929 6 6H8ZM8 6.5V6H6V6.5H8ZM7 5.5H4.5V7.5H7V5.5ZM4.5 5.5C3.67157 5.5 3 6.17157 3 7H5C5 7.27614 4.77614 7.5 4.5 7.5V5.5ZM3 7C3 7.82843 3.67157 8.5 4.5 8.5V6.5C4.77614 6.5 5 6.72386 5 7H3ZM4.5 8.5H7V6.5H4.5V8.5ZM7 8.5H17V6.5H7V8.5ZM17 8.5H19.5V6.5H17V8.5ZM19.5 8.5C20.3284 8.5 21 7.82843 21 7H19C19 6.72386 19.2239 6.5 19.5 6.5V8.5ZM21 7C21 6.17157 20.3284 5.5 19.5 5.5V7.5C19.2239 7.5 19 7.27614 19 7H21ZM19.5 5.5H17V7.5H19.5V5.5ZM16 6V6.5H18V6H16ZM15.5 5.5C15.7761 5.5 16 5.72386 16 6H18C18 4.61929 16.8807 3.5 15.5 3.5V5.5ZM8.5 5.5H15.5V3.5H8.5V5.5Z" fill="#121212" mask="url(#path-5-inside-1_2208_4729)"/>
</g>
</g>
</svg>
