<svg width="24" height="24" viewBox="0 0 24 24" fill="none" xmlns="http://www.w3.org/2000/svg">
<path d="M11.2672 4.78916L5.76721 10.7122C5.59545 10.8972 5.5 11.1403 5.5 11.3927V18.5C5.5 19.0523 5.94772 19.5 6.5 19.5H17.5C18.0523 19.5 18.5 19.0523 18.5 18.5V11.3927C18.5 11.1403 18.4045 10.8972 18.2328 10.7122L12.7328 4.78916C12.3372 4.3631 11.6628 4.3631 11.2672 4.78916Z" fill="#262524"/>
<path d="M5.5 11V18.5C5.5 19.0523 5.94772 19.5 6.5 19.5H17.5C18.0523 19.5 18.5 19.0523 18.5 18.5V11" stroke="#262524" stroke-linecap="round" stroke-linejoin="round"/>
<path d="M9.5 15V18C9.5 18.8284 10.1716 19.5 11 19.5H13C13.8284 19.5 14.5 18.8284 14.5 18V15C14.5 14.1716 13.8284 13.5 13 13.5H11C10.1716 13.5 9.5 14.1716 9.5 15Z" fill="white" stroke="#262524" stroke-linecap="round" stroke-linejoin="round"/>
<path d="M4.5 12L11.2705 4.77817C11.6655 4.35676 12.3345 4.35676 12.7295 4.77817L19.5 12" stroke="#262524" stroke-linecap="round"/>
</svg>
