<svg width="24" height="24" viewBox="0 0 24 24" fill="none" xmlns="http://www.w3.org/2000/svg">
<path d="M4.5 19V15C4.5 14.7239 4.72386 14.5 5 14.5H9C9.27614 14.5 9.5 14.7239 9.5 15V19C9.5 19.2761 9.27614 19.5 9 19.5H5C4.72386 19.5 4.5 19.2761 4.5 19Z" fill="#262524" stroke="#262524" stroke-linecap="round" stroke-linejoin="round"/>
<path d="M14.5 19V9C14.5 8.72386 14.7239 8.5 15 8.5H19C19.2761 8.5 19.5 8.72386 19.5 9V19C19.5 19.2761 19.2761 19.5 19 19.5H15C14.7239 19.5 14.5 19.2761 14.5 19Z" fill="#262524" stroke="#262524" stroke-linecap="round" stroke-linejoin="round"/>
<path d="M14.5 19.5H9.5V5C9.5 4.72386 9.72386 4.5 10 4.5H14C14.2761 4.5 14.5 4.72386 14.5 5V19.5Z" fill="#262524" stroke="#262524" stroke-linecap="round" stroke-linejoin="round"/>
</svg>
