<svg width="24" height="24" viewBox="0 0 24 24" fill="none" xmlns="http://www.w3.org/2000/svg">
<path d="M19.5 5V15.1379C19.5 15.4141 19.2761 15.6379 19 15.6379H15.0439C14.5352 15.6379 14.0611 15.8958 13.7847 16.3228L12.4197 18.4315C12.2227 18.7359 11.7773 18.7359 11.5803 18.4315L10.2153 16.3228C9.93886 15.8958 9.46481 15.6379 8.95609 15.6379H5C4.72386 15.6379 4.5 15.4141 4.5 15.1379V5C4.5 4.72386 4.72386 4.5 5 4.5H12H19C19.2761 4.5 19.5 4.72386 19.5 5Z" fill="#262524" stroke="#262524" stroke-linecap="round" stroke-linejoin="round"/>
<path d="M14 7L13 13" stroke="white" stroke-linecap="round" stroke-linejoin="round"/>
<path d="M9 8.71429H15M9 11.2857H15M11 7L10.5 10L10 13" stroke="white" stroke-linecap="round" stroke-linejoin="round"/>
</svg>
