<svg width="24" height="24" viewBox="0 0 24 24" fill="none" xmlns="http://www.w3.org/2000/svg">
<path d="M14 7L13 13" stroke="#6F6D6C" stroke-linecap="round" stroke-linejoin="round"/>
<path d="M9 8.71429H15M9 11.2857H15M11 7L10.5 10L10 13" stroke="#6F6D6C" stroke-linecap="round" stroke-linejoin="round"/>
<path d="M19.5 5V15.1379C19.5 15.4141 19.2761 15.6379 19 15.6379H15.0795C14.5419 15.6379 14.0454 15.9256 13.7781 16.3921L12.4338 18.7375C12.2417 19.0727 11.7583 19.0727 11.5662 18.7375L10.2219 16.3921C9.95462 15.9256 9.45813 15.6379 8.92053 15.6379H5C4.72386 15.6379 4.5 15.4141 4.5 15.1379V5C4.5 4.72386 4.72386 4.5 5 4.5H12H19C19.2761 4.5 19.5 4.72386 19.5 5Z" stroke="#6F6D6C" stroke-linecap="round" stroke-linejoin="round"/>
</svg>
