<svg width="216" height="216" viewBox="0 0 216 216" fill="none" xmlns="http://www.w3.org/2000/svg">
<g id="&#236;&#185;&#152;&#236;&#185;&#152;">
<g id="Group 961">
<path id="Ellipse 140" d="M169.132 27.6694C170.49 26.2487 172.8 27.2375 172.8 29.246C172.8 46.2337 172.8 98.7914 172.8 123.044C172.8 124.289 171.835 125.28 170.644 125.28H81.0039C79.0803 125.28 78.1156 122.85 79.4787 121.43C109.981 89.6768 147.555 50.2473 169.132 27.6694Z" fill="#FF9387"/>
<path id="Union" fill-rule="evenodd" clip-rule="evenodd" d="M43.2002 29.246C43.2002 27.2375 45.5109 26.2487 46.8686 27.6694C52.4973 33.5591 59.2145 40.5956 66.6108 48.3434C71.5594 53.5272 76.812 59.0295 82.246 64.7198C90.1397 61.2972 98.8484 59.4 108 59.4C143.788 59.4 172.8 88.412 172.8 124.2C172.8 159.988 143.788 189 108 189C72.2121 189 43.2002 159.988 43.2002 124.2C43.2002 123.876 43.2026 123.552 43.2073 123.228C43.2026 123.168 43.2002 123.106 43.2002 123.044L43.2002 29.246Z" fill="#FFBFB9"/>
<path id="Subtract" fill-rule="evenodd" clip-rule="evenodd" d="M72.9199 152.833V166.49C72.9199 170.356 76.0539 173.49 79.9199 173.49C83.7859 173.49 86.9199 170.356 86.9199 166.49V153.258C84.8775 154.057 82.6919 154.49 80.4199 154.49C77.7728 154.49 75.2428 153.903 72.9199 152.833Z" fill="#73CDFF"/>
<g id="Group 799">
<ellipse id="Ellipse 151" cx="23.76" cy="25.92" rx="23.76" ry="25.92" transform="matrix(-1 0 0 1 159.84 104.759)" fill="white"/>
<ellipse id="Ellipse 153" cx="19.44" cy="20.52" rx="19.44" ry="20.52" transform="matrix(-1 0 0 1 153.36 111.239)" fill="#121212"/>
<ellipse id="Ellipse 152" cx="79.9202" cy="130.679" rx="23.76" ry="25.92" fill="white"/>
<ellipse id="Ellipse 154" cx="82.0801" cy="131.759" rx="19.44" ry="20.52" fill="#121212"/>
</g>
</g>
</g>
</svg>
