<svg width="200" height="200" viewBox="0 0 200 200" fill="none" xmlns="http://www.w3.org/2000/svg">
<g id="&#236;&#185;&#152;&#236;&#185;&#152;">
<g id="Group 961">
<path id="Ellipse 140" d="M156.603 25.6198C157.86 24.3043 160 25.2199 160 27.0796C160 42.809 160 91.4735 160 113.93C160 115.082 159.106 116 158.004 116H75.0033C73.2222 116 72.329 113.75 73.5911 112.436C101.834 83.034 136.624 46.5253 156.603 25.6198Z" fill="#FF9387"/>
<path id="Union" fill-rule="evenodd" clip-rule="evenodd" d="M40 27.0796C40 25.2199 42.1395 24.3043 43.3967 25.6198C48.6085 31.0733 54.8282 37.5887 61.6767 44.7627C66.2587 49.5624 71.1221 54.657 76.1535 59.9257C83.4625 56.7567 91.5261 55 100 55C133.137 55 160 81.8629 160 115C160 148.137 133.137 175 100 175C66.8629 175 40 148.137 40 115C40 114.7 40.0022 114.4 40.0066 114.1C40.0022 114.044 40 113.987 40 113.93L40 27.0796Z" fill="#FFBFB9"/>
<g id="Group 799">
<ellipse id="Ellipse 151" cx="22" cy="24" rx="22" ry="24" transform="matrix(-1 0 0 1 148 97)" fill="white"/>
<ellipse id="Ellipse 153" cx="18" cy="19" rx="18" ry="19" transform="matrix(-1 0 0 1 142 103)" fill="#121212"/>
<ellipse id="Ellipse 152" cx="74" cy="121" rx="22" ry="24" fill="white"/>
<ellipse id="Ellipse 154" cx="76" cy="122" rx="18" ry="19" fill="#121212"/>
</g>
<path id="Vector 136" d="M88 147C91.7237 151.528 101.737 157.867 112 147" stroke="#121212" stroke-width="2" stroke-linecap="round"/>
</g>
</g>
</svg>