<svg width="48" height="48" viewBox="0 0 48 48" fill="none" xmlns="http://www.w3.org/2000/svg">
<g clip-path="url(#clip0_3803_5707)">
<path d="M48 24C48 37.2548 37.2548 48 24 48C10.7452 48 0 37.2548 0 24C0 10.7452 10.7452 0 24 0C37.2548 0 48 10.7452 48 24Z" fill="#FFBFB9"/>
<path d="M26 37C25 34.3333 23 34.3333 22 37" stroke="#121212" stroke-width="0.799995" stroke-linecap="round"/>
</g>
<path d="M11 31H18V39.135C18 41.068 16.433 42.635 14.5 42.635C12.567 42.635 11 41.068 11 39.135V31Z" fill="#73CDFF"/>
<ellipse cx="13.8896" cy="27.1199" rx="8.70987" ry="9.26933" fill="white"/>
<ellipse cx="6.97451" cy="7.43809" rx="6.97451" ry="7.43809" transform="matrix(0.974026 0.226434 -0.235046 0.971984 9.70297 18.7451)" fill="black"/>
<ellipse cx="8.70987" cy="9.26933" rx="8.70987" ry="9.26933" transform="matrix(-1 0 0 1 42.832 17.8506)" fill="white"/>
<ellipse cx="6.97451" cy="7.43809" rx="6.97451" ry="7.43809" transform="matrix(-0.974026 0.226434 0.235046 0.971984 38.4043 18.7451)" fill="black"/>
<defs>
<clipPath id="clip0_3803_5707">
<rect width="48" height="48" fill="white"/>
</clipPath>
</defs>
</svg>
