<svg width="160" height="160" viewBox="0 0 160 160" fill="none" xmlns="http://www.w3.org/2000/svg">
<path d="M91.2242 21.6519C91.206 20.1903 92.8658 19.4472 93.8612 20.4818C102.656 29.6234 130.497 59.7874 135.2 80H91.2C91.2 80 91.47 41.4161 91.2242 21.6519Z" fill="#FF9000"/>
<path fill-rule="evenodd" clip-rule="evenodd" d="M88.977 44H21.6031C20.0837 44 19.4198 45.9193 20.6146 46.8581L46.344 67.0741C46.9711 67.5667 47.137 68.4445 46.7567 69.1455C43.0705 75.9408 40.977 83.7259 40.977 92C40.977 118.51 62.4674 140 88.977 140C115.487 140 136.977 118.51 136.977 92C136.977 65.4903 115.487 44 88.977 44Z" fill="#FFB555"/>
<ellipse cx="16" cy="19.2" rx="16" ry="19.2" transform="matrix(0.994522 0.104528 0.104528 -0.994522 100 114.99)" fill="white"/>
<ellipse cx="16" cy="19.2" rx="16" ry="19.2" transform="matrix(0.994522 0.104528 0.104528 -0.994522 64 114.99)" fill="white"/>
<path d="M96.1408 115.2H103.403C104.021 115.2 104.406 115.872 104.092 116.405L98.4077 126.088C98.0284 126.734 97.0487 126.551 96.9283 125.811L95.3512 116.129C95.2719 115.642 95.6476 115.2 96.1408 115.2Z" fill="#121212"/>
<ellipse cx="11.6001" cy="14.0813" rx="11.6001" ry="14.0813" transform="matrix(0.994392 0.105752 0.103318 -0.994648 102.4 111.146)" fill="#121212"/>
<ellipse cx="11.6001" cy="14.0813" rx="11.6001" ry="14.0813" transform="matrix(0.994392 0.105752 0.103318 -0.994648 65.6001 111.146)" fill="#121212"/>
</svg>
