<svg width="216" height="216" viewBox="0 0 216 216" fill="none" xmlns="http://www.w3.org/2000/svg">
<g id="&#235;&#139;&#164;&#235;&#139;&#164;">
<g id="Group 948">
<path id="Ellipse 232" d="M123.153 29.2301C123.128 27.2569 125.369 26.2538 126.713 27.6505C138.586 39.9916 176.171 80.713 182.52 108H123.12C123.12 108 123.485 55.9117 123.153 29.2301Z" fill="#FF9000"/>
<path id="Union" fill-rule="evenodd" clip-rule="evenodd" d="M120.119 59.3994H29.1642C27.1129 59.3994 26.2168 61.9905 27.8298 63.2579L62.5644 90.5494C63.4109 91.2145 63.6349 92.3995 63.1216 93.3458C58.1452 102.52 55.319 113.029 55.319 124.199C55.319 159.987 84.3309 188.999 120.119 188.999C155.907 188.999 184.919 159.987 184.919 124.199C184.919 88.4114 155.907 59.3994 120.119 59.3994Z" fill="#FFB555"/>
<path id="Subtract" fill-rule="evenodd" clip-rule="evenodd" d="M101 155.52V169.176C101 173.042 104.134 176.176 108 176.176C111.866 176.176 115 173.042 115 169.176V155.945C112.958 156.744 110.772 157.176 108.5 157.176C105.853 157.176 103.323 156.589 101 155.52Z" fill="#73CDFF"/>
<ellipse id="Ellipse 235" cx="21.6" cy="25.92" rx="21.6" ry="25.92" transform="matrix(0.994522 0.104528 0.104528 -0.994522 135 155.235)" fill="white"/>
<ellipse id="Ellipse 233" cx="21.6" cy="25.92" rx="21.6" ry="25.92" transform="matrix(0.994522 0.104528 0.104528 -0.994522 86.3999 155.235)" fill="white"/>
<ellipse id="Ellipse 234" cx="15.6601" cy="19.0098" rx="15.6601" ry="19.0098" transform="matrix(0.994392 0.105752 0.103318 -0.994648 138.24 150.048)" fill="#121212"/>
<ellipse id="Ellipse 236" cx="15.6601" cy="19.0098" rx="15.6601" ry="19.0098" transform="matrix(0.994392 0.105752 0.103318 -0.994648 88.5601 150.048)" fill="#121212"/>
</g>
</g>
</svg>
