<svg width="48" height="48" viewBox="0 0 48 48" fill="none" xmlns="http://www.w3.org/2000/svg">
<circle cx="24" cy="24" r="24" fill="#FFB555"/>
<path fill-rule="evenodd" clip-rule="evenodd" d="M15 33.9996V40.4996C15 42.4326 16.567 43.9996 18.5 43.9996C20.433 43.9996 22 42.4326 22 40.4996V33.6211C20.8532 34.4516 19.5688 34.9167 18.2126 34.9167C17.0788 34.9167 15.9951 34.5916 15 33.9996Z" fill="#73CDFF"/>
<ellipse cx="8.03125" cy="9.6375" rx="8.03125" ry="9.6375" transform="matrix(0.994522 0.104528 0.104528 -0.994522 28.7371 34.8057)" fill="white"/>
<ellipse cx="8.03125" cy="9.6375" rx="8.03125" ry="9.6375" transform="matrix(0.994522 0.104528 0.104528 -0.994522 10.6667 34.8057)" fill="white"/>
<ellipse cx="5.82271" cy="7.06817" rx="5.82271" ry="7.06817" transform="matrix(0.994392 0.105752 0.103318 -0.994648 29.9414 32.877)" fill="#121212"/>
<ellipse cx="5.82271" cy="7.06817" rx="5.82271" ry="7.06817" transform="matrix(0.994392 0.105752 0.103318 -0.994648 11.4697 32.877)" fill="#121212"/>
<path d="M31 37.9385C29.75 35.2718 28 35.4385 26 37.9385" stroke="#121212" stroke-width="0.799995" stroke-linecap="round"/>
</svg>
