<svg width="48" height="48" viewBox="0 0 48 48" fill="none" xmlns="http://www.w3.org/2000/svg">
<path d="M48 24C48 37.2548 37.2548 48 24 48C10.7452 48 0 37.2548 0 24C0 10.7452 10.7452 0 24 0C37.2548 0 48 10.7452 48 24Z" fill="#8F8FED"/>
<path d="M10 30H17V38.135C17 40.068 15.433 41.635 13.5 41.635C11.567 41.635 10 40.068 10 38.135V30Z" fill="#73CDFF"/>
<g filter="url(#filter0_i_3803_5706)">
<path fill-rule="evenodd" clip-rule="evenodd" d="M5.85114 26.9355C5.85617 27.1232 5.86482 27.3119 5.87715 27.5014C6.28186 33.7203 10.5031 38.5083 15.3056 38.1958C20.0204 37.889 23.2825 34.1596 22.9387 26.9355H5.85114Z" fill="#FFFDFD"/>
</g>
<g filter="url(#filter1_i_3803_5706)">
<path fill-rule="evenodd" clip-rule="evenodd" d="M25.0496 26.9355C24.7451 34.0913 28.0067 37.8905 32.6972 38.1957C37.4996 38.5083 41.7209 33.7202 42.1256 27.5014C42.1379 27.3119 42.1466 27.1232 42.1516 26.9355H25.0496Z" fill="#FFFDFD"/>
</g>
<g filter="url(#filter2_i_3803_5706)">
<path fill-rule="evenodd" clip-rule="evenodd" d="M8.75448 26.9355C8.71823 27.4813 8.71741 28.0416 8.75452 28.6118C9.08278 33.6559 12.5066 37.5395 16.4019 37.286C20.2738 37.034 23.1806 33.7245 22.9676 26.9355H8.75448Z" fill="black"/>
</g>
<g filter="url(#filter3_i_3803_5706)">
<path fill-rule="evenodd" clip-rule="evenodd" d="M25.0482 26.9355C25.0453 26.9739 25.0426 27.0123 25.0401 27.0508C24.8165 33.908 27.817 37.0326 31.7123 37.2861C35.6076 37.5396 39.0315 33.656 39.3597 28.6118C39.3968 28.0419 39.3928 27.4816 39.3509 26.9355H25.0482Z" fill="black"/>
</g>
<path d="M5.84717 27.2373L22.3565 27.2373" stroke="black" stroke-width="1.2" stroke-linecap="round"/>
<path d="M25.6736 27.2373L42.1456 27.2373" stroke="black" stroke-width="1.2" stroke-linecap="round"/>
<path d="M27.6048 40.4336C25.7492 38.0009 23.4851 36.6415 22.3697 39.4905" stroke="#121212" stroke-width="0.799995" stroke-linecap="round"/>
<defs>
<filter id="filter0_i_3803_5706" x="5.85114" y="26.9355" width="17.1124" height="11.4876" filterUnits="userSpaceOnUse" color-interpolation-filters="sRGB">
<feFlood flood-opacity="0" result="BackgroundImageFix"/>
<feBlend mode="normal" in="SourceGraphic" in2="BackgroundImageFix" result="shape"/>
<feColorMatrix in="SourceAlpha" type="matrix" values="0 0 0 0 0 0 0 0 0 0 0 0 0 0 0 0 0 0 127 0" result="hardAlpha"/>
<feOffset dy="0.213213"/>
<feGaussianBlur stdDeviation="0.799548"/>
<feComposite in2="hardAlpha" operator="arithmetic" k2="-1" k3="1"/>
<feColorMatrix type="matrix" values="0 0 0 0 0 0 0 0 0 0 0 0 0 0 0 0 0 0 0.25 0"/>
<feBlend mode="normal" in2="shape" result="effect1_innerShadow_3803_5706"/>
</filter>
<filter id="filter1_i_3803_5706" x="25.03" y="26.9355" width="17.1216" height="11.4876" filterUnits="userSpaceOnUse" color-interpolation-filters="sRGB">
<feFlood flood-opacity="0" result="BackgroundImageFix"/>
<feBlend mode="normal" in="SourceGraphic" in2="BackgroundImageFix" result="shape"/>
<feColorMatrix in="SourceAlpha" type="matrix" values="0 0 0 0 0 0 0 0 0 0 0 0 0 0 0 0 0 0 127 0" result="hardAlpha"/>
<feOffset dy="0.213213"/>
<feGaussianBlur stdDeviation="0.799548"/>
<feComposite in2="hardAlpha" operator="arithmetic" k2="-1" k3="1"/>
<feColorMatrix type="matrix" values="0 0 0 0 0 0 0 0 0 0 0 0 0 0 0 0 0 0 0.25 0"/>
<feBlend mode="normal" in2="shape" result="effect1_innerShadow_3803_5706"/>
</filter>
<filter id="filter2_i_3803_5706" x="8.72699" y="26.9355" width="14.2516" height="10.5755" filterUnits="userSpaceOnUse" color-interpolation-filters="sRGB">
<feFlood flood-opacity="0" result="BackgroundImageFix"/>
<feBlend mode="normal" in="SourceGraphic" in2="BackgroundImageFix" result="shape"/>
<feColorMatrix in="SourceAlpha" type="matrix" values="0 0 0 0 0 0 0 0 0 0 0 0 0 0 0 0 0 0 127 0" result="hardAlpha"/>
<feOffset dy="0.213213"/>
<feGaussianBlur stdDeviation="0.799548"/>
<feComposite in2="hardAlpha" operator="arithmetic" k2="-1" k3="1"/>
<feColorMatrix type="matrix" values="0 0 0 0 0 0 0 0 0 0 0 0 0 0 0 0 0 0 0.25 0"/>
<feBlend mode="normal" in2="shape" result="effect1_innerShadow_3803_5706"/>
</filter>
<filter id="filter3_i_3803_5706" x="25.0284" y="26.9355" width="14.3567" height="10.5755" filterUnits="userSpaceOnUse" color-interpolation-filters="sRGB">
<feFlood flood-opacity="0" result="BackgroundImageFix"/>
<feBlend mode="normal" in="SourceGraphic" in2="BackgroundImageFix" result="shape"/>
<feColorMatrix in="SourceAlpha" type="matrix" values="0 0 0 0 0 0 0 0 0 0 0 0 0 0 0 0 0 0 127 0" result="hardAlpha"/>
<feOffset dy="0.213213"/>
<feGaussianBlur stdDeviation="0.799548"/>
<feComposite in2="hardAlpha" operator="arithmetic" k2="-1" k3="1"/>
<feColorMatrix type="matrix" values="0 0 0 0 0 0 0 0 0 0 0 0 0 0 0 0 0 0 0.25 0"/>
<feBlend mode="normal" in2="shape" result="effect1_innerShadow_3803_5706"/>
</filter>
</defs>
</svg>
