<svg width="48" height="48" viewBox="0 0 48 48" fill="none" xmlns="http://www.w3.org/2000/svg">
<circle cx="24" cy="24" r="24" fill="#8F8FED"/>
<g filter="url(#filter0_i_2104_3447)">
<path fill-rule="evenodd" clip-rule="evenodd" d="M4 26.6664C4 26.6666 4 26.6667 4 26.6669C4 33.2943 8.38926 38.6668 13.8037 38.6668C19.2181 38.6668 23.1999 34.7945 23.1999 26.8118C23.1999 26.7633 23.1997 26.7148 23.1992 26.6664H4Z" fill="#F8F7F7"/>
</g>
<g filter="url(#filter1_i_2104_3447)">
<path fill-rule="evenodd" clip-rule="evenodd" d="M6.80593 26.6666C6.80186 26.7984 6.7998 26.9309 6.7998 27.064C6.7998 32.3676 10.3415 36.667 14.7103 36.667C18.9731 36.667 22.4113 33.519 22.7781 26.6666H6.80593Z" fill="#121212"/>
</g>
<g filter="url(#filter2_i_2104_3447)">
<path fill-rule="evenodd" clip-rule="evenodd" d="M43.9996 26.6663C43.9996 26.6665 43.9996 26.6666 43.9996 26.6668C43.9996 33.2942 39.6104 38.6667 34.196 38.6667C28.7815 38.6667 24.7997 34.7944 24.7997 26.8116C24.7997 26.7631 24.8 26.7147 24.8004 26.6663H43.9996Z" fill="#F8F7F7"/>
</g>
<g filter="url(#filter3_i_2104_3447)">
<path fill-rule="evenodd" clip-rule="evenodd" d="M41.1937 26.6665C41.1978 26.7983 41.1998 26.9308 41.1998 27.0639C41.1998 32.3675 37.6582 36.6668 33.2893 36.6668C29.0266 36.6668 25.5883 33.5189 25.2216 26.6665H41.1937Z" fill="#121212"/>
</g>
<path d="M20 39.467C22 40.667 26 40.667 28 39.467" stroke="#121212" stroke-width="0.799995" stroke-linecap="round"/>
<path d="M4 26.6672L23.1999 26.6672" stroke="#121212" stroke-width="0.308937" stroke-linecap="round"/>
<path d="M24.7998 26.6672L43.9997 26.6672" stroke="#121212" stroke-width="0.308937" stroke-linecap="round"/>
<defs>
<filter id="filter0_i_2104_3447" x="4" y="26.6664" width="19.1998" height="12.0776" filterUnits="userSpaceOnUse" color-interpolation-filters="sRGB">
<feFlood flood-opacity="0" result="BackgroundImageFix"/>
<feBlend mode="normal" in="SourceGraphic" in2="BackgroundImageFix" result="shape"/>
<feColorMatrix in="SourceAlpha" type="matrix" values="0 0 0 0 0 0 0 0 0 0 0 0 0 0 0 0 0 0 127 0" result="hardAlpha"/>
<feOffset dy="0.0772343"/>
<feGaussianBlur stdDeviation="0.289629"/>
<feComposite in2="hardAlpha" operator="arithmetic" k2="-1" k3="1"/>
<feColorMatrix type="matrix" values="0 0 0 0 0 0 0 0 0 0 0 0 0 0 0 0 0 0 0.25 0"/>
<feBlend mode="normal" in2="shape" result="effect1_innerShadow_2104_3447"/>
</filter>
<filter id="filter1_i_2104_3447" x="6.7998" y="26.6666" width="15.9783" height="10.0775" filterUnits="userSpaceOnUse" color-interpolation-filters="sRGB">
<feFlood flood-opacity="0" result="BackgroundImageFix"/>
<feBlend mode="normal" in="SourceGraphic" in2="BackgroundImageFix" result="shape"/>
<feColorMatrix in="SourceAlpha" type="matrix" values="0 0 0 0 0 0 0 0 0 0 0 0 0 0 0 0 0 0 127 0" result="hardAlpha"/>
<feOffset dy="0.0772343"/>
<feGaussianBlur stdDeviation="0.289629"/>
<feComposite in2="hardAlpha" operator="arithmetic" k2="-1" k3="1"/>
<feColorMatrix type="matrix" values="0 0 0 0 0 0 0 0 0 0 0 0 0 0 0 0 0 0 0.25 0"/>
<feBlend mode="normal" in2="shape" result="effect1_innerShadow_2104_3447"/>
</filter>
<filter id="filter2_i_2104_3447" x="24.7998" y="26.6663" width="19.1998" height="12.0776" filterUnits="userSpaceOnUse" color-interpolation-filters="sRGB">
<feFlood flood-opacity="0" result="BackgroundImageFix"/>
<feBlend mode="normal" in="SourceGraphic" in2="BackgroundImageFix" result="shape"/>
<feColorMatrix in="SourceAlpha" type="matrix" values="0 0 0 0 0 0 0 0 0 0 0 0 0 0 0 0 0 0 127 0" result="hardAlpha"/>
<feOffset dy="0.0772343"/>
<feGaussianBlur stdDeviation="0.289629"/>
<feComposite in2="hardAlpha" operator="arithmetic" k2="-1" k3="1"/>
<feColorMatrix type="matrix" values="0 0 0 0 0 0 0 0 0 0 0 0 0 0 0 0 0 0 0.25 0"/>
<feBlend mode="normal" in2="shape" result="effect1_innerShadow_2104_3447"/>
</filter>
<filter id="filter3_i_2104_3447" x="25.2216" y="26.6665" width="15.9783" height="10.0775" filterUnits="userSpaceOnUse" color-interpolation-filters="sRGB">
<feFlood flood-opacity="0" result="BackgroundImageFix"/>
<feBlend mode="normal" in="SourceGraphic" in2="BackgroundImageFix" result="shape"/>
<feColorMatrix in="SourceAlpha" type="matrix" values="0 0 0 0 0 0 0 0 0 0 0 0 0 0 0 0 0 0 127 0" result="hardAlpha"/>
<feOffset dy="0.0772343"/>
<feGaussianBlur stdDeviation="0.289629"/>
<feComposite in2="hardAlpha" operator="arithmetic" k2="-1" k3="1"/>
<feColorMatrix type="matrix" values="0 0 0 0 0 0 0 0 0 0 0 0 0 0 0 0 0 0 0.25 0"/>
<feBlend mode="normal" in2="shape" result="effect1_innerShadow_2104_3447"/>
</filter>
</defs>
</svg>