<svg width="36" height="36" viewBox="0 0 36 36" fill="none" xmlns="http://www.w3.org/2000/svg">
<circle cx="18" cy="18" r="18" fill="#8F8FED"/>
<g filter="url(#filter0_i_2075_2509)">
<path fill-rule="evenodd" clip-rule="evenodd" d="M3.00012 20C3.00012 20.0002 3.00012 20.0003 3.00012 20.0005C3.00012 24.971 6.29206 29.0004 10.3529 29.0004C14.4137 29.0004 17.4 26.0962 17.4 20.1091C17.4 20.0727 17.3999 20.0363 17.3996 20H3.00012Z" fill="#F8F7F7"/>
</g>
<g filter="url(#filter1_i_2075_2509)">
<path fill-rule="evenodd" clip-rule="evenodd" d="M5.10468 20C5.10164 20.0988 5.1001 20.1981 5.1001 20.2978C5.1001 24.2755 7.75635 27.5001 11.033 27.5001C14.23 27.5001 16.8087 25.1392 17.0838 20H5.10468Z" fill="#121212"/>
</g>
<g filter="url(#filter2_i_2075_2509)">
<path fill-rule="evenodd" clip-rule="evenodd" d="M32.9999 20C32.9999 20.0002 32.9999 20.0003 32.9999 20.0005C32.9999 24.971 29.7079 29.0004 25.6471 29.0004C21.5863 29.0004 18.6 26.0962 18.6 20.1091C18.6 20.0727 18.6001 20.0363 18.6004 20H32.9999Z" fill="#F8F7F7"/>
</g>
<g filter="url(#filter3_i_2075_2509)">
<path fill-rule="evenodd" clip-rule="evenodd" d="M30.8953 20C30.8984 20.0988 30.8999 20.1981 30.8999 20.2978C30.8999 24.2755 28.2437 27.5001 24.967 27.5001C21.77 27.5001 19.1914 25.1392 18.9163 20H30.8953Z" fill="#121212"/>
</g>
<path d="M15.0001 29.6001C16.5001 30.5001 19.5 30.5001 21 29.6001" stroke="#121212" stroke-width="0.599997" stroke-linecap="round"/>
<path d="M3.00012 20.0005L17.4 20.0005" stroke="#121212" stroke-width="0.231703" stroke-linecap="round"/>
<path d="M18.6 20.0005L33 20.0005" stroke="#121212" stroke-width="0.231703" stroke-linecap="round"/>
<defs>
<filter id="filter0_i_2075_2509" x="3.00012" y="20" width="14.3999" height="9.05841" filterUnits="userSpaceOnUse" color-interpolation-filters="sRGB">
<feFlood flood-opacity="0" result="BackgroundImageFix"/>
<feBlend mode="normal" in="SourceGraphic" in2="BackgroundImageFix" result="shape"/>
<feColorMatrix in="SourceAlpha" type="matrix" values="0 0 0 0 0 0 0 0 0 0 0 0 0 0 0 0 0 0 127 0" result="hardAlpha"/>
<feOffset dy="0.0579257"/>
<feGaussianBlur stdDeviation="0.217222"/>
<feComposite in2="hardAlpha" operator="arithmetic" k2="-1" k3="1"/>
<feColorMatrix type="matrix" values="0 0 0 0 0 0 0 0 0 0 0 0 0 0 0 0 0 0 0.25 0"/>
<feBlend mode="normal" in2="shape" result="effect1_innerShadow_2075_2509"/>
</filter>
<filter id="filter1_i_2075_2509" x="5.1001" y="20" width="11.9837" height="7.55793" filterUnits="userSpaceOnUse" color-interpolation-filters="sRGB">
<feFlood flood-opacity="0" result="BackgroundImageFix"/>
<feBlend mode="normal" in="SourceGraphic" in2="BackgroundImageFix" result="shape"/>
<feColorMatrix in="SourceAlpha" type="matrix" values="0 0 0 0 0 0 0 0 0 0 0 0 0 0 0 0 0 0 127 0" result="hardAlpha"/>
<feOffset dy="0.0579257"/>
<feGaussianBlur stdDeviation="0.217222"/>
<feComposite in2="hardAlpha" operator="arithmetic" k2="-1" k3="1"/>
<feColorMatrix type="matrix" values="0 0 0 0 0 0 0 0 0 0 0 0 0 0 0 0 0 0 0.25 0"/>
<feBlend mode="normal" in2="shape" result="effect1_innerShadow_2075_2509"/>
</filter>
<filter id="filter2_i_2075_2509" x="18.6" y="20" width="14.3999" height="9.05841" filterUnits="userSpaceOnUse" color-interpolation-filters="sRGB">
<feFlood flood-opacity="0" result="BackgroundImageFix"/>
<feBlend mode="normal" in="SourceGraphic" in2="BackgroundImageFix" result="shape"/>
<feColorMatrix in="SourceAlpha" type="matrix" values="0 0 0 0 0 0 0 0 0 0 0 0 0 0 0 0 0 0 127 0" result="hardAlpha"/>
<feOffset dy="0.0579257"/>
<feGaussianBlur stdDeviation="0.217222"/>
<feComposite in2="hardAlpha" operator="arithmetic" k2="-1" k3="1"/>
<feColorMatrix type="matrix" values="0 0 0 0 0 0 0 0 0 0 0 0 0 0 0 0 0 0 0.25 0"/>
<feBlend mode="normal" in2="shape" result="effect1_innerShadow_2075_2509"/>
</filter>
<filter id="filter3_i_2075_2509" x="18.9163" y="20" width="11.9837" height="7.55793" filterUnits="userSpaceOnUse" color-interpolation-filters="sRGB">
<feFlood flood-opacity="0" result="BackgroundImageFix"/>
<feBlend mode="normal" in="SourceGraphic" in2="BackgroundImageFix" result="shape"/>
<feColorMatrix in="SourceAlpha" type="matrix" values="0 0 0 0 0 0 0 0 0 0 0 0 0 0 0 0 0 0 127 0" result="hardAlpha"/>
<feOffset dy="0.0579257"/>
<feGaussianBlur stdDeviation="0.217222"/>
<feComposite in2="hardAlpha" operator="arithmetic" k2="-1" k3="1"/>
<feColorMatrix type="matrix" values="0 0 0 0 0 0 0 0 0 0 0 0 0 0 0 0 0 0 0.25 0"/>
<feBlend mode="normal" in2="shape" result="effect1_innerShadow_2075_2509"/>
</filter>
</defs>
</svg>
