<svg width="36" height="36" viewBox="0 0 36 36" fill="none" xmlns="http://www.w3.org/2000/svg">
<circle cx="18" cy="18" r="18" fill="#FFB555"/>
<ellipse cx="6.02344" cy="7.22812" rx="6.02344" ry="7.22812" transform="matrix(0.994522 0.104528 0.104528 -0.994522 21.5527 26.377)" fill="white"/>
<ellipse cx="6.02344" cy="7.22812" rx="6.02344" ry="7.22812" transform="matrix(0.994522 0.104528 0.104528 -0.994522 8 26.377)" fill="white"/>
<path d="M20.0999 26.4561H22.8337C23.0665 26.4561 23.2113 26.7089 23.0934 26.9097L20.9533 30.5548C20.8105 30.798 20.4417 30.7291 20.3963 30.4507L19.8026 26.8056C19.7728 26.6224 19.9142 26.4561 20.0999 26.4561Z" fill="#121212"/>
<ellipse cx="4.36703" cy="5.30113" rx="4.36703" ry="5.30113" transform="matrix(0.994392 0.105752 0.103318 -0.994648 22.4562 24.9302)" fill="#121212"/>
<ellipse cx="4.36703" cy="5.30113" rx="4.36703" ry="5.30113" transform="matrix(0.994392 0.105752 0.103318 -0.994648 8.60229 24.9302)" fill="#121212"/>
</svg>
